<svg viewBox="0 0 512 512" xmlns="http://www.w3.org/2000/svg"><path d="M370.24 425.59a14.89 14.89 0 01-7-1.72L257 368l-106.26 55.87A15 15 0 01129 408.06l20.3-118.32-86-83.8a15 15 0 018.31-25.59l118.81-17.26 53.13-107.66a15 15 0 0126.9 0l53.13 107.66 118.8 17.26a15 15 0 018.32 25.59l-86 83.8L385 408.06a15 15 0 01-14.78 17.53zM106 205.67l69.85 68.09a15 15 0 014.32 13.24l-16.49 96.14L250 337.78a15 15 0 0114 0l86.34 45.39L333.83 287a15 15 0 014.31-13.27L408 205.67l-96.53-14a15 15 0 01-11.29-8.2L257 96l-43.17 87.47a15 15 0 01-11.3 8.2z" data-name="1" fill='#07304c'/></svg>
