<svg height="128" width="128" xmlns="http://www.w3.org/2000/svg"><path d="M119.78 73.78l-4.56-4.9v-.15c.1-1.1.16-2.2.2-3.3v-.97a43.13 43.13 0 00-.1-3.53c-.01-.54-.04-1.08-.08-1.65l4.57-4.86c2.19-2.33 6.15-5.42 4.94-8.36l-5.01-12.15c-1.22-2.94-6.2-2.33-9.38-2.44l-6.68-.24c-.5-.6-1.05-1.18-1.58-1.76l-.06-.09-.54-.6c-.28-.3-.6-.6-.9-.9-.42-.42-.84-.86-1.27-1.27-.72-.68-1.47-1.33-2.2-1.97l-.11-.08-.12-.12-.21-6.7c-.1-3.16.52-8.15-2.4-9.37L82.13 3.3c-2.93-1.22-6.03 2.74-8.35 4.9l-4.9 4.58c-1.1-.11-2.19-.17-3.28-.2-.3-.02-.61-.02-.94-.01-.7 0-1.4-.03-2.13 0a50 50 0 00-2.74.16c-.11 0-.23 0-.32.02l-.18.01-4.87-4.58C52.09 6.02 49 2.04 46.05 3.25L33.91 8.26c-2.95 1.21-2.32 6.2-2.44 9.38l-.24 6.7a52.64 52.64 0 00-2.56 2.27l-.82.83a45.7 45.7 0 00-1.6 1.62l-.78.88c-.35.39-.7.76-1.03 1.17l-6.7.2c-3.16.1-8.15-.52-9.37 2.4L3.3 45.87c-1.22 2.93 2.74 6.02 4.9 8.34l4.57 4.9c-.07.76-.1 1.51-.14 2.28 0 .07-.02.15-.01.22-.07 1.3-.1 2.6-.05 3.89.02.57.06 1.12.1 1.7.03.45.04.92.08 1.37v.13L8.2 73.6C6 75.9 2.04 78.99 3.25 81.92l5 12.16c1.22 2.94 6.22 2.33 9.4 2.45l6.68.22c.04.07.1.11.15.18.67.81 1.39 1.6 2.13 2.4.26.29.53.53.8.8.54.56 1.1 1.1 1.66 1.64l.86.75c.4.35.78.7 1.17 1.03l.2 6.7c.1 3.16-.51 8.16 2.41 9.38l12.16 5.06c2.93 1.22 6.02-2.74 8.34-4.9l4.9-4.57h.16c.63.07 1.26.1 1.89.13.18.01.37.01.54.03l.86.04h1.01c.82.02 1.64 0 2.45-.03l1.06-.06 1.62-.08 4.88 4.57c2.33 2.18 5.4 6.15 8.34 4.93l12.16-5c2.94-1.22 2.33-6.2 2.44-9.4l.23-6.67c.58-.48 1.13-.97 1.66-1.46.08-.09.16-.15.25-.22.18-.17.38-.32.54-.49.32-.29.6-.6.9-.89.42-.43.87-.85 1.3-1.3a49.84 49.84 0 002.15-2.41l6.69-.22c3.17-.1 8.17.52 9.39-2.4l5.06-12.16c1.22-2.93-2.75-6.03-4.91-8.35zM90.75 64a26.75 26.75 0 11-53.5 0 26.75 26.75 0 0153.5 0z" fill="#457387"/></svg>
